#!OML:ASF I:\Actors\actors\Patient Classification 1\Patient 1\Session 1\Subject1.ASF
:FULLY-SPECIFIED
:DEGREES
1877
root -0.238833 17.6229 8.58654 21.3781 -11.0037 -9.48626
lowerback 1.26976 2.82672 10.055
upperback -2.92546 4.13348 1.71373
thorax -3.19837 1.81224 -3.97303
lowerneck -7.52489 -6.73084 -6.76804
upperneck 37.2917 -11.5214 7.53271
head 15.1537 -5.00431 2.60232
rclavicle -4.67144e-014 -2.75317e-014
rhumerus 0.541279 64.5878 -61.7201
rradius 69.573
rwrist 1.14784
rhand 8.25913 -44.873
rfingers 7.12502
rthumb 33.4734 -71.7721
lclavicle -4.67144e-014 -2.75317e-014
lhumerus -12.1405 -69.1801 85.8066
lradius 65.1595
lwrist 9.0121
lhand -15.7074 -7.60372
lfingers 7.12502
lthumb 10.4824 22.1149
rfemur -18.8596 28.3047 16.7822
rtibia 0.902196
rfoot -6.28608 -21.7622
rtoes -2.35005
lfemur -2.23115 -73.3049 -4.21696
ltibia -1.57122
lfoot -106.638 49.4596
ltoes 48.0374
1878
root -0.239315 17.6197 8.60838 20.8682 -10.8062 -9.42889
lowerback 1.03378 2.89512 10.0114
upperback -3.18468 4.21208 1.6769
thorax -3.32697 1.83794 -3.98295
lowerneck -7.48666 -6.78234 -6.8124
upperneck 37.2107 -11.6035 7.58315
head 15.1217 -5.04191 2.61736
rclavicle -2.69353e-014 -1.93815e-014
rhumerus -2.36836 64.1377 -63.872
rradius 71.1821
rwrist 1.03049
rhand 8.4053 -45.4931
rfingers 7.12502
rthumb 33.6123 -72.3621
lclavicle -2.69353e-014 -1.93815e-014
lhumerus -14.4306 -69.1215 87.5902
lradius 66.3415
lwrist 8.60831
lhand -15.6218 -7.36762
lfingers 7.12502
lthumb 10.565 22.3468
rfemur -18.1334 27.9446 17.171
rtibia 0.999215
rfoot -6.53854 -21.4882
rtoes -2.31602
lfemur -0.535077 -72.4591 -5.96784
ltibia -1.72979
lfoot -105.125 49.9153
ltoes 47.6804
1879
root -0.239028 17.6164 8.62898 20.365 -10.6326 -9.37563
lowerback 0.759296 2.99381 9.94068
upperback -3.43477 4.32511 1.65372
thorax -3.4221 1.88379 -3.96132
lowerneck -7.50879 -6.84001 -6.90449
upperneck 37.1997 -11.6829 7.6176
head 15.141 -5.08308 2.63364
rclavicle -8.00108e-015 -1.93815e-014
rhumerus -4.05462 64.6094 -64.6135
rradius 72.9314
rwrist -0.046153
rhand 8.0909 -46.3457
rfingers 7.12502
rthumb 33.3134 -73.2792
lclavicle -8.00108e-015 -1.93815e-014
lhumerus -16.5603 -69.101 89.2986
lradius 67.5192
lwrist 8.30451
lhand -15.2723 -7.461
lfingers 7.12502
lthumb 10.9022 22.236
rfemur -17.4523 27.5497 17.5363
rtibia 1.12161
rfoot -6.76968 -21.193
rtoes -2.22912
lfemur 1.01098 -71.652 -7.56476
ltibia -1.88424
lfoot -103.669 50.5844
ltoes 47.1703
1880
root -0.24438 17.6194 8.65933 19.5118 -10.0175 -9.17605
lowerback 0.614541 2.93869 9.82622
upperback -3.60176 4.24321 1.65216
thorax -3.53448 1.83621 -3.89573
lowerneck -7.21192 -6.86528 -6.80903
upperneck 36.8003 -11.6765 7.53867
head 14.8595 -5.09241 2.58802
rclavicle 2.13694e-014 4.06515e-014
rhumerus -8.26085 62.845 -68.1959
rradius 74.5276
rwrist 0.775742
rhand 8.8399 -46.6191
rfingers 7.12502
rthumb 34.0252 -73.3973
lclavicle 2.13694e-014 4.06515e-014
lhumerus -18.9635 -69.0035 91.3345
lradius 68.6875
lwrist 7.89586
lhand -14.8789 -7.58777
lfingers 7.12502
lthumb 11.2815 22.0888
rfemur -16.0952 27.8468 17.9157
rtibia 0.919268
rfoot -7.18268 -22.0301
rtoes -1.75286
lfemur 2.95366 -70.5168 -9.5454
ltibia -2.17157
lfoot -100.923 51.9524
ltoes 46.0999
1881
root -0.246482 17.6173 8.68164 18.9248 -9.61894 -9.09777
lowerback 0.438134 2.99485 9.75957
upperback -3.89792 4.31575 1.62332
thorax -3.73945 1.8554 -3.88904
lowerneck -7.11421 -6.93485 -7.43339
upperneck 36.8111 -11.8919 8.17208
head 14.9744 -5.19623 2.93136
rclavicle -2.68359e-015 -1.27222e-014
rhumerus -11.4417 61.9543 -70.6619
rradius 76.0943
rwrist 0.745097
rhand 9.07067 -47.2467
rfingers 7.12502
rthumb 34.2444 -73.9759
lclavicle -2.68359e-015 -1.27222e-014
lhumerus -21.8996 -68.8496 93.8479
lradius 69.8498
lwrist 7.29861
lhand -15.0228 -7.61182
lfingers 7.12502
lthumb 11.1428 22.0723
rfemur -15.2263 27.7179 18.3025
rtibia 0.960569
rfoot -7.50067 -22.1529
rtoes -1.84434
lfemur 3.96844 -69.172 -10.5482
ltibia -2.43776
lfoot -98.1651 52.9504
ltoes 45.2507
1882
root -0.24567 17.6137 8.69827 18.4587 -9.31356 -9.03645
lowerback 0.183282 3.07351 9.68282
upperback -4.19779 4.40766 1.57005
thorax -3.90026 1.88641 -3.89758
lowerneck -7.17513 -7.01375 -7.59011
upperneck 36.8694 -12.0256 8.28339
head 15.057 -5.25791 2.98264
rclavicle 5.09386e-016 -2.97183e-014
rhumerus -14.4052 60.9748 -72.9386
rradius 77.7167
rwrist 0.686118
rhand 9.33663 -47.982
rfingers 7.12502
rthumb 34.4969 -74.6541
lclavicle 5.09386e-016 -2.97183e-014
lhumerus -24.7567 -68.6332 96.1674
lradius 71.0393
lwrist 6.94211
lhand -15.3281 -7.67485
lfingers 7.12502
lthumb 10.8483 22.025
rfemur -14.578 27.4013 18.6185
rtibia 1.05481
rfoot -7.79231 -22.0024
rtoes -1.83781
lfemur 4.55184 -67.9112 -11.163
ltibia -2.61244
lfoot -95.6424 53.6475
ltoes 44.6076
1883
root -0.239123 17.6078 8.71424 17.9784 -8.67645 -8.91428
lowerback -0.161592 3.0212 9.68113
upperback -4.46747 4.31416 1.54608
thorax -4.00148 1.82685 -3.90804
lowerneck -7.29927 -7.05663 -7.32285
upperneck 36.9016 -11.9963 7.88167
head 15.0391 -5.25143 2.76706
rclavicle -2.29472e-014 -1.59028e-015
rhumerus -16.998 60.0194 -74.819
rradius 79.3116
rwrist 0.431541
rhand 10.7149 -48.2678
rfingers 7.12502
rthumb 35.8041 -74.6322
lclavicle -2.29472e-014 -1.59028e-015
lhumerus -27.3676 -68.2378 98.2336
lradius 72.2405
lwrist 6.97198
lhand -15.2844 -7.75481
lfingers 7.12502
lthumb 10.8905 21.9428
rfemur -13.8276 27.2261 18.8653
rtibia 1.02504
rfoot -8.19583 -22.3605
rtoes -1.32872
lfemur 4.34539 -66.0925 -11.0655
ltibia -2.81236
lfoot -91.4824 54.787
ltoes 43.3531
1884
root -0.225528 17.5977 8.73146 17.5483 -7.50467 -8.61225
lowerback -0.701773 2.73026 9.66874
upperback -4.74303 3.88003 1.57591
thorax -4.04926 1.60155 -3.84341
lowerneck -7.2831 -6.98628 -7.04344
upperneck 36.6609 -11.7524 7.42438
head 14.8249 -5.16874 2.56241
rclavicle 2.10339e-014 1.66979e-014
rhumerus -18.1392 60.8438 -75.2169
rradius 80.655
rwrist -1.40754
rhand 12.19 -47.998
rfingers 7.12502
rthumb 37.2004 -74.0104
lclavicle 2.10339e-014 1.66979e-014
lhumerus -29.8061 -67.4929 100.17
lradius 73.3704
lwrist 7.057
lhand -15.2289 -7.79174
lfingers 7.12502
lthumb 10.944 21.903
rfemur -13.039 27.1981 18.876
rtibia 0.85222
rfoot -8.80392 -23.3982
rtoes -0.336751
lfemur 3.02727 -63.6306 -10.0835
ltibia -3.0182
lfoot -84.8285 56.3363
ltoes 41.1669
1885
root -0.228341 17.5916 8.74079 17.1763 -7.45907 -8.58704
lowerback -0.947532 2.78215 9.29626
upperback -4.99413 3.93451 1.67231
thorax -4.19403 1.63122 -3.53216
lowerneck -7.3699 -6.91228 -7.36222
upperneck 36.463 -11.618 7.61573
head 14.7753 -5.13137 2.71196
rclavicle -7.0817e-016 -2.127e-014
rhumerus -20.6805 60.2879 -77.1034
rradius 82.0224
rwrist -1.74614
rhand 11.7113 -48.4171
rfingers 7.12502
rthumb 36.7475 -74.5464
lclavicle -7.0817e-016 -2.127e-014
lhumerus -32.0268 -66.6819 101.863
lradius 74.4626
lwrist 7.02617
lhand -15.199 -7.94035
lfingers 7.12502
lthumb 10.9729 21.7529
rfemur -12.6672 26.7673 19.1136
rtibia 1.14838
rfoot -9.10525 -22.8882
rtoes -0.242997
lfemur 3.61705 -62.5912 -10.6672
ltibia -3.1654
lfoot -82.7942 56.7082
ltoes 40.4941
1886
root -0.229926 17.5852 8.75037 16.792 -7.41106 -8.59541
lowerback -1.17675 2.86215 9.0224
upperback -5.24796 4.02894 1.70247
thorax -4.33764 1.6767 -3.34532
lowerneck -7.3379 -6.87691 -7.55385
upperneck 36.1674 -11.5665 7.81494
head 14.6513 -5.11671 2.83146
rclavicle -2.68111e-014 -1.70955e-014
rhumerus -24.1978 58.3095 -80.0506
rradius 83.7222
rwrist -2.37527
rhand 9.22043 -49.9041
rfingers 7.12502
rthumb 34.3866 -76.6012
lclavicle -2.68111e-014 -1.70955e-014
lhumerus -34.3161 -65.9279 103.49
lradius 75.5771
lwrist 6.88144
lhand -15.0878 -8.27498
lfingers 7.12502
lthumb 11.08 21.4125
rfemur -12.2779 26.3809 19.3894
rtibia 1.42795
rfoot -9.38359 -22.4372
rtoes -0.392514
lfemur 4.27313 -61.6732 -11.2676
ltibia -3.30143
lfoot -80.9379 57.097
ltoes 39.8258
1887
root -0.229971 17.5769 8.7585 16.4959 -7.4416 -8.60803
lowerback -1.51852 2.88637 8.69355
upperback -5.55024 4.03941 1.74421
thorax -4.48344 1.68254 -3.11063
lowerneck -7.2092 -6.75825 -7.56051
upperneck 35.9485 -11.3836 7.8427
head 14.4983 -5.04498 2.87338
rclavicle -1.21818e-014 2.43511e-015
rhumerus -26.5086 57.5113 -81.9189
rradius 85.0811
rwrist -2.63849
rhand 9.44238 -50.0278
rfingers 7.12502
rthumb 34.5973 -76.6769
lclavicle -1.21818e-014 2.43511e-015
lhumerus -36.6967 -64.8302 105
lradius 76.7143
lwrist 6.64015
lhand -14.9407 -8.63021
lfingers 7.12502
lthumb 11.2219 21.0496
rfemur -12.0268 26.0982 19.5928
rtibia 1.72785
rfoot -9.61463 -22.0125
rtoes -0.790863
lfemur 4.75176 -60.7694 -11.7003
ltibia -3.47172
lfoot -79.1191 57.6643
ltoes 38.9073
1888
root -0.230476 17.5685 8.76555 16.2116 -7.54112 -8.66597
lowerback -1.41801 3.01743 8.62103
upperback -6.09992 4.25874 1.63951
thorax -5.0983 1.75194 -3.20317
lowerneck -6.94924 -6.69102 -7.6266
upperneck 35.8832 -11.3327 7.98829
head 14.4193 -5.02576 2.96115
rclavicle 7.25253e-016 4.12478e-015
rhumerus -30.057 56.2017 -84.8864
rradius 86.2726
rwrist -1.47263
rhand 9.45983 -49.4693
rfingers 7.12502
rthumb 34.6138 -76.1147
lclavicle 7.25253e-016 4.12478e-015
lhumerus -39.9688 -63.9032 107.206
lradius 77.9133
lwrist 6.37508
lhand -14.8275 -9.04985
lfingers 7.12502
lthumb 11.3311 20.624
rfemur -11.7858 25.9198 19.8247
rtibia 2.01475
rfoot -9.82799 -21.6197
rtoes -1.14675
lfemur 5.22145 -59.805 -12.0767
ltibia -3.63644
lfoot -77.2849 58.0742
ltoes 38.0792
1889
root -0.225635 17.5661 8.77842 15.6095 -7.1144 -8.53596
lowerback -1.79496 3.05624 8.55433
upperback -5.98613 4.2575 1.59268
thorax -4.76191 1.77122 -3.18935
lowerneck -7.40303 -6.77825 -7.81538
upperneck 35.5158 -11.3907 8.09544
head 14.3782 -5.05002 3.00425
rclavicle 2.31242e-015 2.39908e-014
rhumerus -31.7266 54.6868 -85.9187
rradius 87.3429
rwrist 0.251155
rhand 8.99848 -48.7217
rfingers 7.12502
rthumb 34.1758 -75.4663
lclavicle 2.31242e-015 2.39908e-014
lhumerus -41.0313 -63.3552 107.762
lradius 78.9943
lwrist 6.22567
lhand -14.8706 -9.5721
lfingers 7.12502
lthumb 11.2895 20.1041
rfemur -10.902 25.9226 20.0662
rtibia 1.9317
rfoot -10.1276 -21.9866
rtoes -1.1465
lfemur 5.59024 -58.3216 -12.5029
ltibia -3.74858
lfoot -73.1385 58.4898
ltoes 36.6953
1890
root -0.219311 17.5598 8.79167 14.9925 -6.63835 -8.62011
lowerback -1.71491 3.09493 8.82005
upperback -6.16534 4.32988 1.48092
thorax -4.96799 1.77851 -3.46222
lowerneck -7.55007 -6.89332 -7.92086
upperneck 35.3081 -11.5443 8.19378
head 14.3485 -5.11555 3.02796
rclavicle 6.30675e-015 3.47128e-014
rhumerus -33.8342 53.4135 -87.3468
rradius 88.5239
rwrist 0.716957
rhand 9.14188 -48.5031
rfingers 7.12502
rthumb 34.312 -75.2171
lclavicle 6.30675e-015 3.47128e-014
lhumerus -43.1574 -62.647 109.08
lradius 80.0654
lwrist 6.06845
lhand -14.7411 -10.281
lfingers 7.12502
lthumb 11.4144 19.3883
rfemur -9.90581 25.7842 20.6345
rtibia 1.82246
rfoot -10.3802 -22.2292
rtoes -1.19664
lfemur 6.25462 -57.0737 -12.9006
ltibia -3.92255
lfoot -69.4018 58.8481
ltoes 35.3379
